<?xml version="1.0" encoding="utf-8"?>
<!-- Generator: Adobe Illustrator 23.0.1, SVG Export Plug-In . SVG Version: 6.00 Build 0)  -->
<svg version="1.1" xmlns="http://www.w3.org/2000/svg" xmlns:xlink="http://www.w3.org/1999/xlink" x="0px" y="0px"
	 viewBox="0 0 1280 390" style="enable-background:new 0 0 1280 390;" xml:space="preserve">
<style type="text/css">
	.st0{fill:#232528;}
	.st1{fill:#131416;}
	.st2{fill:#4B69E8;}
	.st3{fill:#2849AF;}
	.st4{fill:#7290ED;}
	.st5{fill:#FFFFFF;}
	.st6{opacity:0.4;fill:#2849AF;}
	.st7{fill:#82A1D1;}
	.st8{fill:#B0C7F4;}
	.st9{fill:#EAE9FF;}
</style>
<g id="vorlagen">
</g>
<g id="raster">
</g>
<g id="typo">
	<rect x="-6.56" y="-7.71" class="st0" width="1305.18" height="401.71"/>
	<g>
		<g>
			<circle class="st1" cx="440.33" cy="204.67" r="44.9"/>
		</g>
		<g>
			<circle class="st2" cx="440.33" cy="203" r="44.9"/>
			<path class="st3" d="M441.17,247.88c21.06-0.39,38.56-15.26,42.98-35.08l-14.01-17.83L441.17,247.88z"/>
		</g>
		<g>
			<circle class="st2" cx="440.33" cy="203" r="44.9"/>
			<path class="st3" d="M441.17,247.88c21.06-0.39,38.56-15.26,42.98-35.08l-14.01-17.83L441.17,247.88z"/>
		</g>
		<g>
			<circle class="st2" cx="440.33" cy="203" r="44.9"/>
		</g>
		<path class="st4" d="M440.33,158.09c24.63,0,44.62,19.83,44.89,44.4c0-0.17,0.01-0.33,0.01-0.5c0-24.8-20.1-44.9-44.9-44.9
			c-24.8,0-44.9,20.1-44.9,44.9c0,0.17,0.01,0.33,0.01,0.5C395.71,177.93,415.7,158.09,440.33,158.09z"/>
		<g>
			<path class="st5" d="M526.43,168.59h11.4v32.63l30.87-32.63h14.09l-27.07,27.91L584,233.49H570.1l-22.16-29.21l-10.11,10.38
				v18.82h-11.4V168.59z"/>
			<path class="st5" d="M586.51,209.2v-0.19c0-14,9.92-25.5,23.92-25.5c15.58,0,23.46,12.24,23.46,26.33c0,1.02-0.09,2.04-0.19,3.15
				h-35.97c1.21,7.97,6.86,12.42,14.09,12.42c5.47,0,9.36-2.04,13.26-5.84l6.58,5.84c-4.64,5.56-11.03,9.18-20.03,9.18
				C597.45,234.6,586.51,224.31,586.51,209.2z M622.76,205.59c-0.74-7.23-5.01-12.89-12.42-12.89c-6.86,0-11.68,5.28-12.7,12.89
				H622.76z"/>
			<path class="st5" d="M676.36,184.54h11.68l-19.47,50.34c-3.89,10.01-8.25,13.72-16.13,13.72c-4.64,0-8.16-1.11-11.59-2.97
				l3.8-8.34c2.04,1.11,4.26,1.85,6.58,1.85c3.15,0,5.1-1.39,6.95-5.56l-20.4-49.04h12.05l13.81,36.34L676.36,184.54z"/>
			<path class="st5" d="M691.38,227.09l5.01-7.6c5.38,3.99,11.03,6.03,16.04,6.03c4.82,0,7.6-2.04,7.6-5.28v-0.19
				c0-3.8-5.19-5.1-10.94-6.86c-7.23-2.04-15.3-5.01-15.3-14.37v-0.19c0-9.27,7.7-14.93,17.43-14.93c6.12,0,12.79,2.13,17.99,5.56
				l-4.45,7.97c-4.73-2.87-9.73-4.64-13.81-4.64c-4.36,0-6.86,2.04-6.86,4.82v0.18c0,3.62,5.28,5.1,11.03,6.95
				c7.14,2.23,15.2,5.47,15.2,14.28v0.18c0,10.29-7.97,15.39-18.17,15.39C705.19,234.42,697.5,231.92,691.38,227.09z"/>
			<path class="st5" d="M742.75,219.95v-25.77h-6.21v-9.64h6.21V171.1h11.22v13.44h13.17v9.64h-13.17v24.01
				c0,4.36,2.23,6.12,6.03,6.12c2.5,0,4.73-0.56,6.95-1.67v9.18c-2.78,1.58-5.84,2.5-10.11,2.5
				C748.59,234.33,742.75,230.71,742.75,219.95z"/>
			<path class="st5" d="M773.99,209.29v-0.19c0-14,11.13-25.59,26.15-25.59c15.02,0,26.05,11.4,26.05,25.4v0.19
				c0,13.91-11.13,25.5-26.24,25.5C785.02,234.6,773.99,223.2,773.99,209.29z M814.97,209.29v-0.19c0-8.62-6.21-15.76-15.02-15.76
				c-8.99,0-14.74,7.05-14.74,15.58v0.19c0,8.53,6.21,15.67,14.93,15.67C809.22,224.78,814.97,217.73,814.97,209.29z"/>
			<path class="st5" d="M837.13,184.54h11.22v7.51c3.15-4.54,7.7-8.53,15.3-8.53c11.03,0,17.43,7.42,17.43,18.73v31.24h-11.22
				v-27.81c0-7.6-3.8-11.96-10.48-11.96c-6.49,0-11.03,4.54-11.03,12.14v27.63h-11.22V184.54z"/>
			<path class="st5" d="M891.47,209.2v-0.19c0-14,9.92-25.5,23.92-25.5c15.58,0,23.46,12.24,23.46,26.33c0,1.02-0.09,2.04-0.19,3.15
				h-35.97c1.21,7.97,6.86,12.42,14.09,12.42c5.47,0,9.36-2.04,13.26-5.84l6.58,5.84c-4.64,5.56-11.03,9.18-20.03,9.18
				C902.41,234.6,891.47,224.31,891.47,209.2z M927.72,205.59c-0.74-7.23-5.01-12.89-12.42-12.89c-6.86,0-11.68,5.28-12.7,12.89
				H927.72z"/>
		</g>
		<path class="st6" d="M470.29,195.16L418.25,214l51.25,23.33c6.83-7,15.83-15.5,15.75-36.75L470.29,195.16z"/>
		<path class="st7" d="M470.14,194.97l0.18,0.46l-7.45,17.35c0,0-0.1,1-1.49,1.6s-18.04,7.82-18.04,7.82s-2.35,0.86-3.35,0.86
			v-16.19l27.18-13.15L470.14,194.97z"/>
		<path class="st8" d="M410.15,194.97l-0.18,0.46l7.45,17.35c0,0,0.1,1,1.49,1.6s17.9,7.82,17.9,7.82s2.21,0.86,3.21,0.86v-16.19
			l-27.04-13.15L410.15,194.97z"/>
		<path class="st9" d="M411.38,193.84l26-11.33c2.32-1.01,5.17-1.01,7.49,0l24,10.46c2.03,0.89,2.03,3.1,0,3.98l-25.03,10.92
			c-2.57,1.12-5.74,1.12-8.31,0l-24.16-10.54C409.6,196.56,409.6,194.62,411.38,193.84z"/>
	</g>
	<g>
		<circle class="st1" cx="440.33" cy="576.67" r="44.9"/>
	</g>
	<g>
		<circle class="st2" cx="440.33" cy="575" r="44.9"/>
		<path class="st3" d="M441.17,619.88c21.06-0.39,38.56-15.26,42.98-35.08l-14.01-17.83L441.17,619.88z"/>
	</g>
	<g>
		<circle class="st2" cx="440.33" cy="575" r="44.9"/>
		<path class="st3" d="M441.17,619.88c21.06-0.39,38.56-15.26,42.98-35.08l-14.01-17.83L441.17,619.88z"/>
	</g>
	<g>
		<circle class="st2" cx="440.33" cy="575" r="44.9"/>
	</g>
	<path class="st4" d="M440.33,530.09c24.63,0,44.62,19.83,44.89,44.4c0-0.17,0.01-0.33,0.01-0.5c0-24.8-20.1-44.9-44.9-44.9
		c-24.8,0-44.9,20.1-44.9,44.9c0,0.17,0.01,0.33,0.01,0.5C395.71,549.93,415.7,530.09,440.33,530.09z"/>
	<g>
		<path class="st0" d="M526.43,540.59h11.4v32.63l30.87-32.63h14.09l-27.07,27.91L584,605.49H570.1l-22.16-29.21l-10.11,10.38v18.82
			h-11.4V540.59z"/>
		<path class="st0" d="M586.51,581.2v-0.19c0-14,9.92-25.5,23.92-25.5c15.58,0,23.46,12.24,23.46,26.33c0,1.02-0.09,2.04-0.19,3.15
			h-35.97c1.21,7.97,6.86,12.42,14.09,12.42c5.47,0,9.36-2.04,13.26-5.84l6.58,5.84c-4.64,5.56-11.03,9.18-20.03,9.18
			C597.45,606.6,586.51,596.31,586.51,581.2z M622.76,577.59c-0.74-7.23-5.01-12.89-12.42-12.89c-6.86,0-11.68,5.28-12.7,12.89
			H622.76z"/>
		<path class="st0" d="M676.36,556.54h11.68l-19.47,50.34c-3.89,10.01-8.25,13.72-16.13,13.72c-4.64,0-8.16-1.11-11.59-2.97
			l3.8-8.34c2.04,1.11,4.26,1.85,6.58,1.85c3.15,0,5.1-1.39,6.95-5.56l-20.4-49.04h12.05l13.81,36.34L676.36,556.54z"/>
		<path class="st0" d="M691.38,599.09l5.01-7.6c5.38,3.99,11.03,6.03,16.04,6.03c4.82,0,7.6-2.04,7.6-5.28v-0.19
			c0-3.8-5.19-5.1-10.94-6.86c-7.23-2.04-15.3-5.01-15.3-14.37v-0.19c0-9.27,7.7-14.93,17.43-14.93c6.12,0,12.79,2.13,17.99,5.56
			l-4.45,7.97c-4.73-2.87-9.73-4.64-13.81-4.64c-4.36,0-6.86,2.04-6.86,4.82v0.18c0,3.62,5.28,5.1,11.03,6.95
			c7.14,2.23,15.2,5.47,15.2,14.28v0.18c0,10.29-7.97,15.39-18.17,15.39C705.19,606.42,697.5,603.92,691.38,599.09z"/>
		<path class="st0" d="M742.75,591.95v-25.77h-6.21v-9.64h6.21V543.1h11.22v13.44h13.17v9.64h-13.17v24.01
			c0,4.36,2.23,6.12,6.03,6.12c2.5,0,4.73-0.56,6.95-1.67v9.18c-2.78,1.58-5.84,2.5-10.11,2.5
			C748.59,606.33,742.75,602.71,742.75,591.95z"/>
		<path class="st0" d="M773.99,581.29v-0.19c0-14,11.13-25.59,26.15-25.59c15.02,0,26.05,11.4,26.05,25.4v0.19
			c0,13.91-11.13,25.5-26.24,25.5C785.02,606.6,773.99,595.2,773.99,581.29z M814.97,581.29v-0.19c0-8.62-6.21-15.76-15.02-15.76
			c-8.99,0-14.74,7.05-14.74,15.58v0.19c0,8.53,6.21,15.67,14.93,15.67C809.22,596.78,814.97,589.73,814.97,581.29z"/>
		<path class="st0" d="M837.13,556.54h11.22v7.51c3.15-4.54,7.7-8.53,15.3-8.53c11.03,0,17.43,7.42,17.43,18.73v31.24h-11.22v-27.81
			c0-7.6-3.8-11.96-10.48-11.96c-6.49,0-11.03,4.54-11.03,12.14v27.63h-11.22V556.54z"/>
		<path class="st0" d="M891.47,581.2v-0.19c0-14,9.92-25.5,23.92-25.5c15.58,0,23.46,12.24,23.46,26.33c0,1.02-0.09,2.04-0.19,3.15
			h-35.97c1.21,7.97,6.86,12.42,14.09,12.42c5.47,0,9.36-2.04,13.26-5.84l6.58,5.84c-4.64,5.56-11.03,9.18-20.03,9.18
			C902.41,606.6,891.47,596.31,891.47,581.2z M927.72,577.59c-0.74-7.23-5.01-12.89-12.42-12.89c-6.86,0-11.68,5.28-12.7,12.89
			H927.72z"/>
	</g>
	<path class="st6" d="M470.29,567.16L418.25,586l51.25,23.33c6.83-7,15.83-15.5,15.75-36.75L470.29,567.16z"/>
	<path class="st7" d="M470.14,566.97l0.18,0.46l-7.45,17.35c0,0-0.1,1-1.49,1.6s-18.04,7.82-18.04,7.82s-2.35,0.86-3.35,0.86v-16.19
		l27.18-13.15L470.14,566.97z"/>
	<path class="st8" d="M410.15,566.97l-0.18,0.46l7.45,17.35c0,0,0.1,1,1.49,1.6s17.9,7.82,17.9,7.82s2.21,0.86,3.21,0.86v-16.19
		l-27.04-13.15L410.15,566.97z"/>
	<path class="st9" d="M411.38,565.84l26-11.33c2.32-1.01,5.17-1.01,7.49,0l24,10.46c2.03,0.89,2.03,3.1,0,3.98l-25.03,10.92
		c-2.57,1.12-5.74,1.12-8.31,0l-24.16-10.54C409.6,568.56,409.6,566.62,411.38,565.84z"/>
	<text transform="matrix(1 0 0 1 30.2029 773.4268)"><tspan x="0" y="0" style="fill:#697077; font-family:'MyriadPro-Regular'; font-size:24.458px;">Dark (Background / Font): </tspan><tspan x="266.05" y="0" class="st0" style="font-family:'MyriadPro-Regular'; font-size:24.458px;">#232528</tspan></text>
	<text transform="matrix(1 0 0 1 30.2029 736.4268)"><tspan x="0" y="0" style="fill:#5067B2; font-family:'MyriadPro-Regular'; font-size:24.458px;">Blue:</tspan><tspan x="49.82" y="0" class="st2" style="font-family:'MyriadPro-Regular'; font-size:24.458px;"> #4b69e8</tspan></text>
</g>
</svg>
